<svg width="435" height="128" viewBox="0 0 435 128" fill="none" xmlns="http://www.w3.org/2000/svg">
<path d="M216.5 60.1667C223.496 60.1667 229.167 54.4956 229.167 47.5C229.167 40.5044 223.496 34.8333 216.5 34.8333C209.504 34.8333 203.833 40.5044 203.833 47.5C203.833 54.4956 209.504 60.1667 216.5 60.1667Z" fill="#0099FF"/>
<path d="M204.625 7.91666L197.381 15.8333H184.833C180.479 15.8333 176.917 19.3958 176.917 23.75V71.25C176.917 75.6042 180.479 79.1667 184.833 79.1667H248.167C252.521 79.1667 256.083 75.6042 256.083 71.25V23.75C256.083 19.3958 252.521 15.8333 248.167 15.8333H235.619L228.375 7.91666H204.625ZM216.5 67.2917C205.575 67.2917 196.708 58.425 196.708 47.5C196.708 36.575 205.575 27.7083 216.5 27.7083C227.425 27.7083 236.292 36.575 236.292 47.5C236.292 58.425 227.425 67.2917 216.5 67.2917Z" fill="#0099FF"/>
<path d="M191.656 103.936H189.107V90.4359H191.656V103.936ZM199.268 103.936C199.15 103.707 199.065 103.423 199.013 103.083C198.397 103.769 197.598 104.112 196.613 104.112C195.682 104.112 194.908 103.842 194.293 103.303C193.684 102.764 193.379 102.084 193.379 101.264C193.379 100.256 193.751 99.4827 194.495 98.9437C195.245 98.4046 196.326 98.1321 197.738 98.1263H198.907V97.5814C198.907 97.1419 198.793 96.7903 198.564 96.5267C198.342 96.263 197.987 96.1312 197.501 96.1312C197.073 96.1312 196.736 96.2337 196.49 96.4388C196.25 96.6439 196.13 96.9251 196.13 97.2825H193.59C193.59 96.7318 193.76 96.222 194.1 95.7532C194.439 95.2845 194.92 94.9183 195.541 94.6546C196.162 94.3851 196.859 94.2503 197.633 94.2503C198.805 94.2503 199.733 94.5462 200.419 95.138C201.11 95.7239 201.456 96.5501 201.456 97.6165V101.739C201.462 102.641 201.588 103.324 201.834 103.786V103.936H199.268ZM197.167 102.169C197.542 102.169 197.888 102.087 198.204 101.923C198.521 101.753 198.755 101.528 198.907 101.246V99.6116H197.958C196.687 99.6116 196.01 100.051 195.928 100.93L195.919 101.079C195.919 101.396 196.03 101.657 196.253 101.862C196.476 102.067 196.78 102.169 197.167 102.169ZM205.745 94.4261L205.824 95.5247C206.504 94.6751 207.415 94.2503 208.558 94.2503C209.565 94.2503 210.315 94.5462 210.808 95.138C211.3 95.7298 211.552 96.6146 211.563 97.7923V103.936H209.023V97.8538C209.023 97.3148 208.906 96.9251 208.672 96.6849C208.438 96.4388 208.048 96.3157 207.503 96.3157C206.788 96.3157 206.252 96.6204 205.895 97.2298V103.936H203.354V94.4261H205.745ZM213.102 99.1107C213.102 97.6282 213.433 96.4476 214.095 95.5687C214.763 94.6898 215.674 94.2503 216.828 94.2503C217.754 94.2503 218.519 94.596 219.122 95.2874V90.4359H221.671V103.936H219.377L219.254 102.925C218.621 103.716 217.807 104.112 216.811 104.112C215.691 104.112 214.792 103.672 214.112 102.793C213.438 101.909 213.102 100.681 213.102 99.1107ZM215.642 99.2952C215.642 100.186 215.797 100.868 216.107 101.343C216.418 101.818 216.869 102.055 217.461 102.055C218.246 102.055 218.8 101.724 219.122 101.062V97.3089C218.806 96.6468 218.258 96.3157 217.479 96.3157C216.254 96.3157 215.642 97.3089 215.642 99.2952ZM226.32 103.936H223.771V94.4261H226.32V103.936ZM223.622 91.9651C223.622 91.5843 223.748 91.2708 224 91.0247C224.258 90.7786 224.606 90.6556 225.046 90.6556C225.479 90.6556 225.825 90.7786 226.083 91.0247C226.341 91.2708 226.47 91.5843 226.47 91.9651C226.47 92.3519 226.338 92.6683 226.074 92.9144C225.816 93.1605 225.474 93.2835 225.046 93.2835C224.618 93.2835 224.272 93.1605 224.009 92.9144C223.751 92.6683 223.622 92.3519 223.622 91.9651ZM230.759 94.4261L230.838 95.5247C231.518 94.6751 232.429 94.2503 233.571 94.2503C234.579 94.2503 235.329 94.5462 235.821 95.138C236.313 95.7298 236.565 96.6146 236.577 97.7923V103.936H234.037V97.8538C234.037 97.3148 233.92 96.9251 233.686 96.6849C233.451 96.4388 233.062 96.3157 232.517 96.3157C231.802 96.3157 231.266 96.6204 230.908 97.2298V103.936H228.368V94.4261H230.759ZM238.142 99.1107C238.142 97.6517 238.487 96.4769 239.179 95.5862C239.876 94.6956 240.813 94.2503 241.991 94.2503C243.034 94.2503 243.846 94.6077 244.426 95.3226L244.531 94.4261H246.834V103.619C246.834 104.451 246.644 105.175 246.263 105.79C245.888 106.406 245.357 106.874 244.672 107.197C243.986 107.519 243.184 107.68 242.264 107.68C241.566 107.68 240.887 107.539 240.225 107.258C239.562 106.983 239.062 106.625 238.722 106.186L239.847 104.639C240.479 105.348 241.247 105.702 242.149 105.702C242.823 105.702 243.348 105.521 243.723 105.158C244.098 104.8 244.285 104.29 244.285 103.628V103.118C243.699 103.781 242.929 104.112 241.974 104.112C240.831 104.112 239.905 103.666 239.196 102.776C238.493 101.879 238.142 100.693 238.142 99.2161V99.1107ZM240.682 99.2952C240.682 100.157 240.854 100.833 241.2 101.326C241.546 101.812 242.021 102.055 242.624 102.055C243.397 102.055 243.951 101.765 244.285 101.185V97.1859C243.945 96.6058 243.397 96.3157 242.642 96.3157C242.032 96.3157 241.552 96.5648 241.2 97.0628C240.854 97.5609 240.682 98.305 240.682 99.2952Z" fill="#0099FF"/>
<path d="M11.2812 72.1875V90H5.28125V44.5H22.0625C27.0417 44.5 30.9375 45.7708 33.75 48.3125C36.5833 50.8542 38 54.2188 38 58.4062C38 62.8229 36.6146 66.2292 33.8438 68.625C31.0938 71 27.1458 72.1875 22 72.1875H11.2812ZM11.2812 67.2812H22.0625C25.2708 67.2812 27.7292 66.5312 29.4375 65.0312C31.1458 63.5104 32 61.3229 32 58.4688C32 55.7604 31.1458 53.5938 29.4375 51.9688C27.7292 50.3438 25.3854 49.5 22.4062 49.4375H11.2812V67.2812ZM50.5312 60.2812C53.0938 57.1354 56.4271 55.5625 60.5312 55.5625C67.6771 55.5625 71.2812 59.5938 71.3438 67.6562V90H65.5625V67.625C65.5417 65.1875 64.9792 63.3854 63.875 62.2188C62.7917 61.0521 61.0938 60.4688 58.7812 60.4688C56.9062 60.4688 55.2604 60.9688 53.8438 61.9688C52.4271 62.9688 51.3229 64.2812 50.5312 65.9062V90H44.75V42H50.5312V60.2812ZM78.4688 72.7812C78.4688 69.4688 79.1146 66.4896 80.4062 63.8438C81.7188 61.1979 83.5312 59.1562 85.8438 57.7188C88.1771 56.2812 90.8333 55.5625 93.8125 55.5625C98.4167 55.5625 102.135 57.1562 104.969 60.3438C107.823 63.5312 109.25 67.7708 109.25 73.0625V73.4688C109.25 76.7604 108.615 79.7188 107.344 82.3438C106.094 84.9479 104.292 86.9792 101.938 88.4375C99.6042 89.8958 96.9167 90.625 93.875 90.625C89.2917 90.625 85.5729 89.0312 82.7188 85.8438C79.8854 82.6562 78.4688 78.4375 78.4688 73.1875V72.7812ZM84.2812 73.4688C84.2812 77.2188 85.1458 80.2292 86.875 82.5C88.625 84.7708 90.9583 85.9062 93.875 85.9062C96.8125 85.9062 99.1458 84.7604 100.875 82.4688C102.604 80.1562 103.469 76.9271 103.469 72.7812C103.469 69.0729 102.583 66.0729 100.812 63.7812C99.0625 61.4688 96.7292 60.3125 93.8125 60.3125C90.9583 60.3125 88.6562 61.4479 86.9062 63.7188C85.1562 65.9896 84.2812 69.2396 84.2812 73.4688ZM124.344 48V56.1875H130.656V60.6562H124.344V81.625C124.344 82.9792 124.625 84 125.188 84.6875C125.75 85.3542 126.708 85.6875 128.062 85.6875C128.729 85.6875 129.646 85.5625 130.812 85.3125V90C129.292 90.4167 127.812 90.625 126.375 90.625C123.792 90.625 121.844 89.8438 120.531 88.2812C119.219 86.7188 118.562 84.5 118.562 81.625V60.6562H112.406V56.1875H118.562V48H124.344ZM135.281 72.7812C135.281 69.4688 135.927 66.4896 137.219 63.8438C138.531 61.1979 140.344 59.1562 142.656 57.7188C144.99 56.2812 147.646 55.5625 150.625 55.5625C155.229 55.5625 158.948 57.1562 161.781 60.3438C164.635 63.5312 166.062 67.7708 166.062 73.0625V73.4688C166.062 76.7604 165.427 79.7188 164.156 82.3438C162.906 84.9479 161.104 86.9792 158.75 88.4375C156.417 89.8958 153.729 90.625 150.688 90.625C146.104 90.625 142.385 89.0312 139.531 85.8438C136.698 82.6562 135.281 78.4375 135.281 73.1875V72.7812ZM141.094 73.4688C141.094 77.2188 141.958 80.2292 143.688 82.5C145.438 84.7708 147.771 85.9062 150.688 85.9062C153.625 85.9062 155.958 84.7604 157.688 82.4688C159.417 80.1562 160.281 76.9271 160.281 72.7812C160.281 69.0729 159.396 66.0729 157.625 63.7812C155.875 61.4688 153.542 60.3125 150.625 60.3125C147.771 60.3125 145.469 61.4479 143.719 63.7188C141.969 65.9896 141.094 69.2396 141.094 73.4688Z" fill="#0099FF"/>
<path d="M302.875 84.0312C301.333 86.2396 299.177 87.8958 296.406 89C293.656 90.0833 290.448 90.625 286.781 90.625C283.073 90.625 279.781 89.7604 276.906 88.0312C274.031 86.2812 271.802 83.8021 270.219 80.5938C268.656 77.3854 267.854 73.6667 267.812 69.4375V65.4688C267.812 58.6146 269.406 53.3021 272.594 49.5312C275.802 45.7604 280.302 43.875 286.094 43.875C290.844 43.875 294.667 45.0938 297.562 47.5312C300.458 49.9479 302.229 53.3854 302.875 57.8438H296.875C295.75 51.8229 292.167 48.8125 286.125 48.8125C282.104 48.8125 279.052 50.2292 276.969 53.0625C274.906 55.875 273.865 59.9583 273.844 65.3125V69.0312C273.844 74.1354 275.01 78.1979 277.344 81.2188C279.677 84.2188 282.833 85.7188 286.812 85.7188C289.062 85.7188 291.031 85.4688 292.719 84.9688C294.406 84.4688 295.802 83.625 296.906 82.4375V72.2188H286.375V67.3438H302.875V84.0312ZM328.344 61.375C327.469 61.2292 326.521 61.1562 325.5 61.1562C321.708 61.1562 319.135 62.7708 317.781 66V90H312V56.1875H317.625L317.719 60.0938C319.615 57.0729 322.302 55.5625 325.781 55.5625C326.906 55.5625 327.76 55.7083 328.344 56V61.375ZM353.312 90C352.979 89.3333 352.708 88.1458 352.5 86.4375C349.812 89.2292 346.604 90.625 342.875 90.625C339.542 90.625 336.802 89.6875 334.656 87.8125C332.531 85.9167 331.469 83.5208 331.469 80.625C331.469 77.1042 332.802 74.375 335.469 72.4375C338.156 70.4792 341.927 69.5 346.781 69.5H352.406V66.8438C352.406 64.8229 351.802 63.2188 350.594 62.0312C349.385 60.8229 347.604 60.2188 345.25 60.2188C343.188 60.2188 341.458 60.7396 340.062 61.7812C338.667 62.8229 337.969 64.0833 337.969 65.5625H332.156C332.156 63.875 332.75 62.25 333.938 60.6875C335.146 59.1042 336.771 57.8542 338.812 56.9375C340.875 56.0208 343.135 55.5625 345.594 55.5625C349.49 55.5625 352.542 56.5417 354.75 58.5C356.958 60.4375 358.104 63.1146 358.188 66.5312V82.0938C358.188 85.1979 358.583 87.6667 359.375 89.5V90H353.312ZM343.719 85.5938C345.531 85.5938 347.25 85.125 348.875 84.1875C350.5 83.25 351.677 82.0312 352.406 80.5312V73.5938H347.875C340.792 73.5938 337.25 75.6667 337.25 79.8125C337.25 81.625 337.854 83.0417 339.062 84.0625C340.271 85.0833 341.823 85.5938 343.719 85.5938ZM395.812 73.4688C395.812 78.6146 394.635 82.7604 392.281 85.9062C389.927 89.0521 386.74 90.625 382.719 90.625C378.615 90.625 375.385 89.3229 373.031 86.7188V103H367.25V56.1875H372.531L372.812 59.9375C375.167 57.0208 378.438 55.5625 382.625 55.5625C386.688 55.5625 389.896 57.0938 392.25 60.1562C394.625 63.2188 395.812 67.4792 395.812 72.9375V73.4688ZM390.031 72.8125C390.031 69 389.219 65.9896 387.594 63.7812C385.969 61.5729 383.74 60.4688 380.906 60.4688C377.406 60.4688 374.781 62.0208 373.031 65.125V81.2812C374.76 84.3646 377.406 85.9062 380.969 85.9062C383.74 85.9062 385.938 84.8125 387.562 82.625C389.208 80.4167 390.031 77.1458 390.031 72.8125ZM408.969 60.2812C411.531 57.1354 414.865 55.5625 418.969 55.5625C426.115 55.5625 429.719 59.5938 429.781 67.6562V90H424V67.625C423.979 65.1875 423.417 63.3854 422.312 62.2188C421.229 61.0521 419.531 60.4688 417.219 60.4688C415.344 60.4688 413.698 60.9688 412.281 61.9688C410.865 62.9688 409.76 64.2812 408.969 65.9062V90H403.188V42H408.969V60.2812Z" fill="#0099FF"/>
</svg>
